<svg font-family="sans-serif" viewBox="0 0 753 262" xmlns:xlink="http://www.w3.org/1999/xlink" text-decoration="none"
     font-style="normal" width="100%" xmlns="http://www.w3.org/2000/svg" font-size="15" version="1.1"
     font-weight="normal">
    <title>Average Hourly Temperature in Denver</title>
    <defs>
        <clipPath id="plot-sample-bounds-7">
            <rect y="0" x="75.8" height="240" width="601.4"></rect>
        </clipPath>
        <clipPath id="plot-sample-bounds-scaled-7">
            <rect y="0" x="758.2" height="2400" width="6013.5"></rect>
        </clipPath>
    </defs>
    <g transform="scale(0.1)">
        <path fill-opacity="1.000" stroke-width="10" stroke="#5ca0b4" d="" fill="#5ca0b4" stroke-opacity="1.0"></path>
        <path fill-opacity="1.000" stroke-width="10" stroke="#83c2d5"
              d="M758,534l0,0l11,-3l6,-2l16,-18l17,-13l16,-7l17,-16l16,-8l17,-16l16,-13l4,-3l13,-4l16,-7l16,-9l17,-6l16,-3l17,-5l16,2l17,1l16,5l17,5l16,4l17,6l16,-7l17,-2l16,8l17,-6l16,8l17,0l16,-16l17,-11l16,-6l17,-2l16,-14l16,-16l17,-7l14,-13l2,-3l17,-16l16,-18l17,-15l16,-10l17,-3l16,-8l17,-6l16,-3l17,-12l3,-2l13,-13l17,-25l16,-28l15,-30l2,-3l16,-30l9,-15l-800,0ZM6253,100l8,13l13,35l4,10l16,61l6,25l10,22l17,28l16,32l8,14l9,16l16,25l17,26l16,17l9,11l8,9l16,7l17,10l16,8l17,16l16,3l17,4l16,15l17,2l16,7l17,5l16,0l16,10l17,-5l16,-6l17,6l16,-3l17,6l3,2l13,7l17,2l16,-3l17,-3l0,-434ZM758,2400l800,0l8,-13l16,-25l8,-10l8,-16l17,-40l15,-40l1,-4l17,-44l13,-48l3,-10l17,-34l16,-42l4,-9l13,-72l7,-24l9,-20l17,-33l16,-29l7,-14l-7,-9l-16,-14l-17,-11l-16,-16l-17,-17l-16,-16l-17,-10l-3,-3l3,-7l17,-20l16,-28l17,-29l10,-12l-10,-14l-17,-52l-7,-30l-9,-4l-17,-7l-16,-9l-17,-8l-16,-9l-17,-7l-16,-8l-16,-9l-17,-9l-16,-8l-17,-7l-16,-8l-11,-2l-6,-2l-16,-5l-17,-2l-16,-2l-17,-1l-16,-1l-17,-3l-16,-1l-17,-5l-16,-3l-17,-5l-16,-3l-17,-4l-16,-4l-16,-4l-17,-1l-16,-2l-17,-4l-16,-3l-17,2l-16,1l-17,0l-16,2l-17,-1l-16,0l-17,2l-16,1l-17,2l-16,1l-17,-1l-16,0l-17,0l-16,0l-17,-3l-16,-2l-16,-3l-17,-2l-16,-4l-17,-4l-16,-3l-17,-5l-16,-1l-17,-3l-16,-2l-17,-2ZM6341,1490l-14,9l-17,9l-16,12l-16,11l-17,7l-16,6l-17,10l-16,6l-17,4l-16,8l-17,7l-15,6l-1,2l-17,33l-16,23l-17,17l-16,20l-2,1l2,9l14,87l2,18l17,78l16,83l3,13l14,76l5,20l11,74l4,21l13,84l2,12l14,29l17,32l16,25l4,10l13,34l8,14l519,0l0,-988l-17,-2l-16,-2l-17,2l-16,4l-17,0l-16,1l-17,2l-16,-2l-17,1l-16,3l-16,0l-17,3l-16,2l-17,3l-16,6l-17,3l-16,1l-17,5l-16,3l-17,2l-16,5l-17,6l-16,6l-17,7l-16,8l-17,9Z"
              fill="#83c2d5" stroke-opacity="1.0"></path>
        <path fill-opacity="1.000" stroke-width="10" stroke="#679568"
              d="M1556,100l-7,12l-16,29l-4,7l-13,26l-16,29l-17,24l-16,17l-17,12l-16,3l-17,5l-16,8l-17,4l-16,9l-17,16l-16,17l-17,16l-4,6l-12,11l-17,7l-16,16l-16,14l-17,2l-16,6l-17,11l-16,15l-17,0l-16,-7l-17,6l-16,-8l-17,2l-16,7l-17,-6l-16,-4l-17,-5l-16,-5l-17,0l-16,-3l-17,5l-16,4l-17,6l-16,8l-16,7l-17,6l-16,14l-17,16l-16,8l-17,15l-16,8l-17,12l-16,18l-11,5l-6,2l0,878l17,1l16,3l17,3l16,1l17,5l16,2l17,4l16,5l17,2l16,2l16,2l17,3l16,0l17,1l16,0l17,0l16,-1l17,-1l16,-2l17,-2l16,1l17,0l16,-1l17,-1l16,0l17,-2l16,3l17,3l16,3l17,0l16,5l16,4l17,4l16,3l17,5l16,2l17,6l16,2l17,1l16,1l17,2l16,2l17,2l16,5l3,1l14,3l16,8l17,7l16,8l17,9l16,9l16,8l17,7l16,8l17,9l16,8l17,8l7,3l9,36l17,51l6,9l-6,8l-17,29l-16,28l-17,20l-5,11l5,5l17,10l16,16l17,17l16,16l17,12l16,14l5,6l-5,10l-16,28l-17,33l-11,25l-5,16l-14,80l-3,6l-16,42l-17,33l-4,14l-12,44l-17,44l-3,8l-13,36l-17,40l-10,20l-6,7l-16,25l-10,16l841,0l9,-8l16,-14l17,-16l9,-10l7,-11l17,-27l16,-17l17,-10l16,-16l15,-15l2,-2l16,-30l17,-33l16,-28l2,-3l14,-24l17,-21l16,-22l15,-28l2,-3l16,-27l17,-24l16,-30l7,-12l10,-22l16,-31l17,-39l1,-4l15,-32l17,-31l16,-25l5,-8l-5,-12l-16,-38l-17,-46l-16,-13l-17,-11l-16,-12l-17,-11l-16,-10l-17,-12l-16,-10l-17,-11l-8,-6l-8,-3l-17,-9l-16,-7l-16,-9l-17,-10l-16,-9l-17,-9l-16,-6l-17,-3l-16,-3l-17,-5l-16,-7l-17,-6l-16,-3l-17,-4l-7,-2l-9,-4l-17,-7l-16,-7l-17,-6l-16,-6l-17,-5l-16,-9l-16,-9l-17,-6l-16,-3l-17,-5l-16,-6l-17,-3l-16,-3l-17,-2l-16,0l-17,-5l-16,-4l-17,-5l-6,-1l-10,-3l-17,-5l-16,-3l-17,-3l-16,-4l-17,-10l-16,-8l-17,-7l-16,-4l-16,-6l-17,-7l-16,-8l-17,-5l-16,-4l-17,-6l-16,-5l-17,-5l-9,-3l-7,-3l-17,-6l-16,-7l-17,-7l-16,-7l-17,-11l-16,-15l-17,-13l-16,-13l-15,-14l-2,-1l-16,-19l-17,-15l-16,-13l-16,-20l-17,-19l-9,-9l-7,-16l-17,-28l-16,-29l-17,-19l-2,-4l-12,-95l14,-27l17,-36l12,-33l4,-3l17,-16l16,-18l17,-23l16,-22l15,-14l1,-1l17,-11l16,-12l17,-15l16,-13l17,-17l16,-16l14,-11l3,-2l16,-10l17,-11l16,-10l17,-9l16,-10l17,-10l16,-9l17,-10l16,-6l17,-7l3,-2l13,-9l17,-11l16,-13l16,-8l17,-11l16,-14l17,-11l16,-8l17,-9l3,-2l13,-11l17,-15l16,-15l17,-16l16,-15l17,-10l16,-7l9,-6l8,-7l16,-11l17,-11l16,-16l17,-14l16,-8l17,-17l10,-12l6,-9l16,-20l17,-16l16,-19l17,-16l15,-16l1,-2l17,-21l16,-18l8,-7ZM5629,100l6,12l14,36l2,4l17,29l16,34l14,29l3,5l16,23l17,32l16,32l2,4l15,19l16,20l17,19l16,24l10,13l7,9l16,26l17,29l15,32l1,1l17,20l16,20l17,22l16,22l9,11l7,7l17,11l16,13l17,10l16,8l17,9l16,9l17,13l16,12l6,4l11,9l16,16l17,13l16,9l17,9l16,8l17,7l16,9l17,8l16,7l1,1l16,20l16,25l16,26l17,23l1,2l8,95l-9,38l-17,54l-1,4l-15,20l-16,20l-17,18l-16,12l-17,20l-8,6l-8,4l-17,7l-16,9l-17,13l-16,11l-17,17l-16,19l-17,15l-1,1l-15,10l-17,11l-16,8l-17,6l-16,6l-17,8l-16,10l-17,8l-16,9l-16,11l-14,9l-3,1l-16,6l-17,6l-16,7l-17,6l-16,4l-17,4l-16,4l-17,5l-16,4l-17,5l-16,8l-17,5l-16,5l-17,5l-16,4l-17,4l-16,3l-17,3l-16,4l-6,3l-10,4l-17,7l-16,9l-17,9l-16,15l-17,13l-16,14l-17,12l-16,10l-4,2l-13,71l-13,25l-3,8l-17,72l-1,16l1,4l17,46l16,46l17,54l13,42l3,7l17,49l11,40l5,19l17,48l6,28l10,30l17,47l7,19l9,19l17,29l16,35l6,13l10,26l11,22l627,0l-11,-19l-11,-29l-6,-15l-16,-25l-17,-32l-12,-24l-4,-24l-11,-72l-6,-32l-10,-63l-6,-26l-13,-70l-4,-19l-15,-77l-1,-9l-17,-78l-1,-9l-15,-96l16,-19l17,-18l16,-22l17,-33l3,-4l13,-5l17,-7l16,-8l17,-5l16,-5l17,-10l16,-6l17,-7l16,-11l16,-12l17,-9l15,-10l1,-1l17,-9l16,-9l17,-6l16,-6l17,-6l16,-5l17,-3l16,-3l17,-4l16,-2l17,-2l16,-6l17,-3l16,-3l17,-2l16,-1l16,-2l17,-2l16,3l17,-2l16,-1l17,0l16,-5l17,-2l16,2l17,2l0,-879l-17,2l-16,3l-17,-1l-11,-6l-5,-5l-17,-5l-16,2l-17,-5l-16,5l-17,6l-16,-10l-16,0l-17,-5l-16,-7l-17,-3l-16,-15l-17,-3l-16,-4l-17,-15l-16,-9l-17,-9l-16,-7l-6,-7l-11,-14l-16,-17l-17,-26l-16,-25l-8,-13l-9,-17l-16,-31l-17,-29l-8,-19l-8,-31l-16,-60l-2,-5l-15,-39l-5,-9Z"
              fill="#679568" stroke-opacity="1.0"></path>
        <path fill-opacity="1.000" stroke-width="10" stroke="#74a877"
              d="M2395,100l-6,5l-16,19l-17,20l-3,4l-13,14l-17,17l-16,18l-17,16l-16,20l-8,11l-8,10l-17,18l-16,8l-17,13l-16,16l-17,11l-16,11l-10,9l-7,5l-16,7l-17,9l-16,16l-17,16l-16,15l-17,15l-15,12l-1,1l-17,9l-16,8l-17,11l-16,14l-17,11l-16,8l-16,13l-17,11l-15,10l-1,1l-17,7l-16,6l-17,10l-16,9l-17,10l-16,10l-17,9l-16,10l-17,12l-16,9l-4,3l-13,10l-16,17l-17,16l-16,13l-17,15l-16,13l-17,10l-3,2l-13,12l-16,23l-17,23l-16,17l-17,16l-5,5l-11,29l-17,36l-16,31l11,95l5,7l17,19l16,29l17,28l6,13l10,11l17,19l16,20l16,12l17,16l16,18l17,15l16,13l17,13l16,15l17,11l16,7l17,7l16,7l17,6l4,2l12,4l17,5l16,5l17,6l16,4l17,5l16,8l17,6l16,7l16,4l17,7l16,8l17,9l16,5l17,3l16,3l17,5l6,2l10,2l17,5l16,4l17,5l16,0l17,2l16,3l17,3l16,5l17,6l16,3l17,5l16,10l16,8l17,6l16,6l17,6l16,7l17,7l7,3l9,3l17,4l16,3l17,5l16,8l17,5l16,3l17,2l16,7l17,9l16,9l17,10l16,9l16,7l17,9l7,2l9,7l17,11l16,10l17,12l16,10l17,11l16,12l17,11l15,12l1,5l17,45l16,38l3,8l-3,6l-16,24l-17,31l-16,35l-17,39l-16,32l-12,25l-5,9l-16,30l-17,24l-16,27l-3,6l-14,25l-16,23l-17,20l-16,27l-16,29l-17,33l-16,29l-5,5l-12,13l-16,16l-17,10l-16,17l-17,26l-9,14l-7,8l-17,16l-16,14l-11,10l593,0l11,-10l16,-16l17,-15l10,-7l6,-8l17,-23l16,-23l17,-20l16,-22l17,-32l16,-35l17,-29l16,-53l15,-42l2,-4l16,-41l17,-28l11,-23l5,-7l17,-19l16,-17l16,-17l17,-21l10,-15l6,-12l17,-21l16,-32l15,-31l-15,-22l-16,-23l-17,-17l-16,-23l-8,-11l-9,-4l-16,-6l-16,-6l-17,-7l-16,-8l-17,-7l-16,-9l-17,-9l-16,-11l-17,-11l-16,-12l-9,-6l-8,-4l-16,-8l-17,-8l-16,-9l-17,-8l-16,-7l-17,-8l-16,-9l-17,-11l-16,-11l-17,-8l-7,-4l-9,-6l-16,-15l-17,-12l-16,-8l-17,-9l-16,-8l-17,-9l-16,-11l-17,-12l-11,-6l-5,-3l-17,-8l-16,-12l-17,-10l-16,-6l-17,-9l-16,-8l-17,-10l-16,-8l-17,-8l-16,-10l-8,-4l-9,-7l-16,-9l-16,-13l-17,-14l-16,-13l-17,-14l-16,-11l-17,-3l-16,-1l-17,-6l-7,-5l-9,-9l-17,-13l-16,-5l-17,-7l-16,-11l-17,-13l-16,-11l-17,-10l-16,-9l-14,-8l-3,-2l-16,-23l-16,-33l-17,-17l-16,-5l-15,-16l-2,-4l-16,-39l-17,-22l-16,-20l-6,-10l3,-96l3,-4l16,-19l17,-21l16,-32l10,-20l7,-5l16,-4l17,-19l16,-28l16,-23l17,-15l2,-2l14,-9l17,-9l16,-13l17,-16l16,-14l17,-11l16,-12l12,-12l5,-4l16,-14l17,-10l16,-7l17,-10l16,-15l17,-16l16,-18l1,-2l16,-13l16,-12l16,-8l17,-10l16,-13l17,-9l16,-8l17,-10l16,-8l11,-4l6,-4l16,-12l17,-15l16,-13l17,-11l16,-13l17,-17l14,-11l2,-2l17,-13l16,-13l17,-13l16,-16l17,-21l15,-18l1,-1l16,-14l17,-13l16,-15l6,-5ZM5233,100l7,10l16,30l4,8l13,21l16,27l16,24l17,24l16,20l17,23l16,19l17,22l9,12l7,6l17,17l16,18l17,19l16,19l14,16l3,3l16,17l17,21l16,20l17,18l16,15l2,2l15,13l16,14l16,12l17,12l16,14l17,16l15,15l1,2l17,21l16,17l17,20l16,20l16,16l1,1l16,21l17,19l16,21l17,15l16,17l2,2l15,42l16,54l-4,95l-12,31l-17,32l-16,26l-6,7l-11,8l-16,13l-17,12l-16,14l-17,14l-16,17l-17,16l-3,2l-13,6l-17,11l-16,10l-17,7l-16,8l-17,4l-16,7l-16,8l-17,8l-16,10l-17,11l-5,6l-11,8l-17,10l-16,9l-17,9l-16,8l-17,9l-16,9l-17,8l-16,6l-17,7l-16,6l-17,7l-16,12l-17,7l-16,10l-16,11l-17,12l-16,13l-17,12l-16,13l-5,6l-12,11l-16,12l-17,12l-16,12l-17,12l-16,12l-17,11l-16,11l-3,2l-14,24l-16,25l-17,23l-16,17l-7,7l-10,16l-16,28l-17,25l-14,27l14,43l17,39l5,14l11,28l17,42l12,26l4,8l17,41l16,38l4,9l13,39l15,56l1,3l17,37l16,35l9,21l8,12l16,26l17,25l16,21l10,12l7,11l16,24l10,13l398,0l-13,-26l-8,-22l-8,-16l-16,-34l-17,-29l-8,-17l-8,-22l-17,-47l-9,-27l-7,-32l-17,-48l-4,-15l-12,-44l-17,-48l-1,-4l-15,-46l-15,-50l-2,-5l-16,-45l-17,-46l17,-80l6,-16l10,-19l14,-77l3,-1l16,-10l17,-12l16,-14l17,-13l16,-15l17,-9l16,-9l17,-7l12,-5l4,-2l16,-4l17,-3l16,-3l17,-4l16,-4l17,-5l16,-5l17,-5l16,-8l17,-6l16,-4l17,-4l16,-4l17,-5l16,-4l17,-6l16,-7l17,-5l16,-6l4,-2l13,-8l16,-11l16,-9l17,-9l16,-9l17,-8l16,-6l17,-6l16,-8l17,-11l16,-11l17,-15l16,-19l17,-17l16,-11l17,-13l16,-9l17,-7l10,-5l6,-5l17,-20l16,-11l17,-19l16,-19l16,-22l17,-54l10,-42l-8,-95l-2,-4l-17,-23l-16,-26l-16,-24l-14,-19l-3,-2l-16,-7l-17,-8l-16,-9l-17,-7l-16,-7l-17,-10l-16,-9l-17,-13l-16,-16l-10,-8l-7,-5l-16,-12l-17,-12l-16,-10l-17,-9l-16,-8l-17,-10l-16,-12l-17,-12l-6,-6l-10,-12l-16,-22l-17,-22l-16,-20l-17,-20l-16,-33l-17,-29l-16,-26l-6,-8l-11,-14l-16,-24l-17,-19l-16,-21l-14,-17l-3,-6l-16,-31l-17,-33l-16,-23l-2,-3l-15,-31l-16,-34l-17,-29l-1,-2l-15,-39l-4,-9Z"
              fill="#74a877" stroke-opacity="1.0"></path>
        <path fill-opacity="1.000" stroke-width="10" stroke="#8dbf71"
              d="M2986,100l-4,4l-16,15l-17,13l-16,13l-3,3l-13,17l-17,21l-16,15l-17,13l-16,13l-17,14l-3,3l-13,10l-17,17l-16,12l-17,11l-16,14l-17,15l-16,11l-8,6l-9,3l-16,8l-17,10l-16,8l-17,9l-16,13l-17,10l-16,8l-16,12l-17,14l-16,19l-17,16l-16,14l-17,11l-16,7l-17,9l-16,15l-7,5l-10,11l-16,11l-17,11l-16,15l-17,16l-16,13l-17,9l-16,10l-17,15l-16,23l-16,28l-17,19l-16,4l-9,7l-8,16l-16,32l-17,21l-16,19l-6,8l-3,96l9,15l16,20l17,22l16,38l17,19l16,4l17,17l16,33l16,23l17,9l16,10l17,10l16,11l17,13l16,10l17,8l16,4l17,14l7,7l9,6l17,6l16,1l17,3l16,11l17,14l16,13l17,14l16,13l16,9l8,6l9,5l16,9l17,9l16,8l17,10l16,8l17,9l16,6l17,10l16,12l17,8l3,2l13,6l17,13l16,11l17,9l16,7l17,9l16,9l17,12l16,14l8,6l8,5l17,8l16,10l17,11l16,10l17,8l16,7l17,8l16,8l17,8l16,9l7,3l10,7l16,12l17,11l16,10l17,9l16,10l17,7l16,8l17,7l16,5l16,7l8,3l9,13l16,23l17,17l16,23l14,20l-14,28l-16,32l-17,21l-7,15l-9,13l-17,21l-16,17l-16,17l-17,19l-7,9l-9,20l-17,28l-16,41l-3,7l-14,38l-16,53l-2,4l-15,26l-16,36l-17,32l-1,2l-15,19l-17,21l-16,23l-17,23l-8,10l-8,6l-17,15l-16,16l-13,11l433,0l8,-25l8,-23l9,-5l16,-9l17,-9l16,-13l17,-11l16,-9l17,-9l16,-8l17,-9l16,-8l15,-6l1,-2l17,-13l16,-19l17,-14l16,-16l17,-13l16,-15l4,-4l13,-11l16,-18l17,-15l16,-13l17,-14l16,-15l17,-7l4,-2l12,-8l17,-19l16,-16l17,-9l16,-5l17,-4l16,-6l16,-7l17,-3l16,-5l17,-4l16,-5l17,-5l16,-6l17,0l16,0l17,3l16,3l17,-3l16,3l17,0l16,0l17,5l16,2l17,7l16,7l17,10l16,8l16,6l17,9l16,5l17,5l16,8l17,10l16,4l17,5l16,2l6,3l11,5l16,14l17,8l16,5l17,14l16,11l17,14l16,13l17,6l8,5l8,5l16,13l17,15l16,18l17,14l16,22l8,9l9,9l16,17l17,20l16,19l17,17l14,14l2,2l17,25l16,21l423,0l-11,-15l-16,-24l-6,-9l-11,-14l-16,-21l-17,-25l-16,-25l-7,-11l-10,-24l-16,-34l-17,-38l-16,-59l-12,-36l-5,-11l-16,-39l-17,-41l-3,-5l-13,-29l-17,-42l-10,-25l-6,-18l-17,-39l-12,-39l12,-24l17,-26l16,-28l11,-18l6,-6l16,-17l17,-22l16,-26l15,-25l2,-1l16,-11l17,-12l16,-11l17,-12l16,-12l17,-13l16,-12l12,-11l5,-5l16,-13l17,-13l16,-12l17,-12l16,-12l16,-9l17,-8l16,-12l2,0l15,-6l16,-6l17,-7l16,-7l17,-7l16,-9l17,-10l16,-8l17,-8l16,-9l17,-10l12,-9l4,-5l17,-11l16,-10l17,-8l16,-8l16,-7l17,-4l16,-8l17,-7l16,-10l17,-11l15,-7l1,-1l17,-16l16,-17l17,-14l16,-13l17,-13l16,-13l13,-9l4,-5l16,-25l17,-32l13,-34l3,-71l1,-24l-1,-3l-16,-54l-14,-39l-3,-3l-16,-17l-17,-15l-16,-21l-17,-19l-16,-21l-17,-17l-16,-20l-17,-20l-16,-17l-17,-21l0,-1l-16,-16l-17,-16l-16,-14l-17,-12l-16,-12l-16,-14l-14,-12l-3,-3l-16,-15l-17,-18l-16,-20l-17,-20l-16,-18l-2,-2l-15,-17l-16,-19l-17,-19l-16,-19l-17,-16l-6,-5l-10,-14l-17,-22l-16,-18l-17,-23l-15,-19l-1,-2l-17,-23l-16,-25l-16,-27l-12,-19l-5,-10l-16,-30l-6,-8l-423,0l17,25l12,23l4,5l17,22l16,24l17,22l16,20l3,3l14,9l16,14l16,13l17,15l16,16l17,13l16,16l17,17l16,21l17,23l16,23l10,11l7,6l16,13l17,13l16,13l17,10l16,11l17,10l16,8l17,9l5,3l11,8l17,15l16,15l16,11l17,12l16,12l17,9l16,7l12,7l5,6l16,19l17,25l16,26l14,20l3,11l16,66l5,19l-5,80l-1,16l-15,39l-17,48l-3,8l-13,19l-17,23l-16,15l-17,18l-16,13l-10,8l-7,5l-16,17l-17,15l-16,17l-16,19l-17,18l-6,5l-10,7l-17,12l-16,9l-17,13l-16,13l-17,12l-16,14l-17,14l-2,2l-14,9l-17,9l-16,12l-17,12l-16,10l-17,11l-16,10l-17,7l-16,11l-6,5l-11,9l-16,14l-16,10l-17,13l-16,13l-17,15l-16,15l-7,7l-10,7l-16,9l-17,6l-16,6l-17,3l-16,1l-17,3l-16,2l-17,3l-16,2l-17,1l-16,3l-17,2l-16,5l-17,4l-16,5l-16,3l-17,2l-16,3l-17,2l-16,4l-17,3l-16,3l-17,2l-16,3l-17,3l-16,3l-13,2l-4,1l-16,5l-17,4l-16,5l-17,3l-16,5l-17,5l-16,5l-16,5l-17,4l-16,4l-17,3l-16,4l-17,4l-16,3l-17,2l-16,2l-17,2l-16,3l-17,3l-16,2l-17,1l-16,0l-17,1l-16,-1l-17,-1l-16,0l-17,-1l-16,0l-16,-1l-17,-1l-16,0l-17,-2l-16,-3l-17,-4l-16,-2l-17,-3l-16,-3l-17,-5l-16,-4l-17,-4l-16,-5l-17,-5l-16,-5l-17,-5l-16,-4l-17,-4l-16,-5l-17,-5l-7,-3l-9,-3l-16,-6l-17,-8l-16,-8l-17,-9l-16,-9l-17,-7l-16,-9l-17,-9l-16,-8l-17,-8l-16,-8l-6,-3l-11,-8l-16,-13l-17,-11l-16,-10l-17,-8l-16,-7l-17,-12l-16,-10l-16,-6l-17,-9l-3,-2l-13,-11l-17,-9l-16,-12l-17,-11l-16,-12l-17,-15l-16,-11l-17,-10l-7,-5l-9,-8l-17,-14l-16,-14l-17,-14l-16,-10l-17,-13l-16,-19l-3,-4l-14,-21l-16,-22l-17,-18l-16,-13l-16,-22l0,-2l-17,-33l-16,-26l-17,-22l-14,-13l-2,-4l-17,-48l-14,-43l-2,-32l-4,-64l4,-22l16,-58l5,-16l12,-22l16,-23l17,-32l9,-19l7,-9l17,-26l16,-25l16,-16l14,-20l3,-2l16,-17l17,-19l16,-17l17,-12l16,-12l17,-15l1,-2l15,-8l17,-11l16,-11l17,-9l16,-8l17,-14l16,-10l17,-11l16,-10l6,-3l11,-15l16,-18l17,-20l16,-19l16,-23l2,-1l15,-14l16,-10l17,-13l16,-15l17,-23l16,-16l7,-5l10,-26l8,-22Z"
              fill="#8dbf71" stroke-opacity="1.0"></path>
        <path fill-opacity="1.000" stroke-width="10" stroke="#e9cc77"
              d="M3417,100l-6,18l-11,30l-6,4l-16,16l-17,23l-16,15l-17,13l-16,10l-17,15l-16,22l-16,19l-17,20l-16,19l-13,16l-4,3l-16,9l-17,11l-16,11l-17,14l-16,7l-17,9l-16,11l-17,11l-16,9l-17,16l-16,12l-17,12l-16,17l-17,19l-16,17l-4,3l-13,18l-16,16l-16,25l-17,26l-9,11l-7,16l-17,32l-16,23l-14,25l-3,11l-16,58l-5,27l5,80l1,16l15,48l17,47l16,15l17,22l16,27l17,32l16,23l16,14l17,18l16,21l13,20l4,5l16,19l17,13l16,10l17,14l16,14l17,14l7,7l9,6l17,10l16,11l17,15l16,12l17,11l16,12l17,9l12,10l4,3l17,9l16,6l16,9l17,12l16,8l17,8l16,9l17,11l16,14l10,7l7,4l16,8l17,8l16,8l17,9l16,9l17,7l16,9l17,9l16,8l17,8l16,6l7,2l9,4l17,5l16,5l17,4l16,4l17,5l16,5l17,5l16,5l17,3l16,5l17,5l16,3l17,3l16,2l17,4l16,2l17,2l16,1l17,1l16,1l16,0l17,1l16,0l17,0l16,2l17,-1l16,0l17,-2l16,-2l17,-2l16,-3l17,-2l16,-3l17,-1l16,-4l17,-3l16,-4l17,-3l16,-4l17,-5l16,-4l16,-5l17,-5l16,-5l17,-3l16,-5l17,-4l16,-5l9,-2l8,-1l16,-3l17,-3l16,-3l17,-3l16,-3l17,-3l16,-3l17,-3l16,-3l17,-1l16,-4l16,-4l17,-5l16,-4l17,-2l16,-3l17,-2l16,-2l17,-2l16,-3l17,-3l16,-1l17,-2l16,-6l17,-6l16,-9l11,-8l6,-6l16,-15l17,-15l16,-13l17,-13l16,-11l16,-14l12,-9l5,-4l16,-11l17,-8l16,-10l17,-10l16,-11l17,-11l16,-12l17,-9l15,-10l1,-1l17,-14l16,-14l17,-12l16,-13l17,-13l16,-9l17,-12l11,-8l5,-4l17,-18l16,-19l16,-17l17,-15l16,-17l9,-6l8,-7l16,-13l17,-18l16,-15l17,-22l14,-21l2,-5l17,-48l16,-42l6,-96l-6,-23l-16,-65l-2,-8l-15,-21l-16,-26l-17,-26l-16,-19l-4,-4l-13,-7l-16,-8l-17,-9l-16,-11l-17,-12l-16,-12l-16,-15l-17,-15l-10,-7l-6,-4l-17,-9l-16,-8l-17,-10l-16,-11l-17,-10l-16,-13l-17,-13l-16,-13l-6,-5l-11,-12l-16,-23l-17,-23l-16,-21l-16,-16l-1,-2l-16,-15l-17,-13l-16,-16l-17,-15l-16,-13l-16,-14l-12,-8l-5,-5l-16,-19l-17,-23l-16,-24l-17,-22l-2,-3l-14,-26l-15,-22ZM3691,340l16,-11l17,-9l16,-5l17,-7l16,-5l17,-5l16,-2l17,-2l16,-6l17,-3l16,0l17,5l16,2l17,-1l16,1l16,2l17,0l16,2l17,3l16,3l17,1l16,3l17,4l16,4l17,4l16,-1l17,3l16,2l17,1l16,4l17,3l16,4l17,3l8,3l8,1l17,4l16,4l16,6l17,2l16,3l17,6l16,4l17,2l16,2l17,1l16,3l17,3l16,2l17,3l16,5l17,3l16,4l17,3l16,1l17,3l16,5l16,7l17,8l16,7l7,3l10,6l16,8l17,8l16,10l17,9l16,10l17,7l16,7l17,7l16,7l17,9l13,8l3,4l17,13l16,15l17,13l16,10l17,10l16,11l16,12l9,8l8,13l16,25l17,17l16,22l12,19l5,18l16,73l1,5l-1,48l-1,48l-15,41l-17,40l-6,14l-10,16l-17,18l-16,28l-17,31l-2,3l-14,13l-16,13l-17,12l-16,13l-17,17l-16,17l-11,11l-6,4l-16,15l-17,8l-16,8l-17,8l-16,7l-17,9l-16,10l-17,8l-16,10l-17,6l-6,3l-10,5l-17,6l-16,4l-17,7l-16,7l-16,3l-17,2l-16,3l-17,3l-16,6l-17,3l-16,3l-17,2l-16,2l-17,2l-16,2l-17,1l-16,3l-17,4l-16,3l-17,2l-16,3l-17,4l-16,4l-16,3l-17,3l-16,3l-13,3l-4,0l-16,4l-17,4l-16,3l-17,0l-16,1l-17,2l-16,0l-17,2l-16,3l-17,3l-16,1l-17,-1l-16,0l-17,0l-16,0l-17,0l-16,0l-16,-1l-17,0l-16,1l-17,-1l-16,-3l-17,-4l-16,-3l-17,-3l-16,-3l-17,-5l-16,-6l-17,-5l-16,-8l-17,-7l-16,-8l-17,-6l-16,-5l-17,-7l-16,-8l-17,-5l-16,-7l-16,-8l-17,-11l-8,-5l-8,-7l-17,-14l-16,-13l-17,-11l-16,-14l-17,-13l-16,-14l-13,-10l-4,-4l-16,-17l-17,-19l-16,-25l-17,-23l-6,-8l-10,-20l-17,-27l-16,-24l-12,-25l-5,-20l-15,-75l-1,-96l16,-71l7,-25l10,-28l16,-24l17,-35l3,-9l13,-33l17,-49l5,-14l11,-13l17,-17l16,-17l17,-19l16,-20l7,-10l10,-6l16,-10l17,-9l16,-7l17,-9l16,-8l17,-7l16,-6l16,-4l17,-6l16,-7l17,-6l16,-5l17,-5ZM4029,1969l-9,2l-16,5l-17,5l-16,5l-17,3l-16,7l-16,6l-17,4l-16,5l-17,8l-16,16l-17,20l-16,10l-17,7l-16,15l-17,14l-16,13l-17,15l-16,19l-15,12l-2,2l-16,15l-17,13l-16,16l-17,15l-16,18l-17,14l-3,3l-13,6l-16,7l-17,9l-16,9l-17,8l-16,10l-17,10l-16,13l-17,9l-16,9l-10,6l-7,19l-10,29l1396,0l-2,-2l-16,-21l-17,-25l-16,-16l-17,-17l-16,-19l-17,-19l-16,-18l-7,-7l-10,-11l-16,-22l-17,-15l-16,-17l-17,-15l-16,-13l-4,-3l-12,-8l-17,-5l-16,-14l-17,-14l-16,-11l-17,-13l-16,-6l-17,-8l-16,-14l-6,-2l-11,-5l-16,-2l-17,-5l-16,-5l-17,-9l-16,-9l-17,-4l-16,-6l-17,-8l-16,-7l-16,-7l-17,-10l-16,-7l-17,-7l-16,-3l-9,-2l-8,-3l-16,0l-17,0l-16,-4l-17,4l-16,-3l-17,-3l-16,-1l-17,1l-16,6Z"
              fill="#e9cc77" stroke-opacity="1.0"></path>
        <path fill-opacity="1.000" stroke-width="10" stroke="#c77560"
              d="M3689,340l-15,5l-16,4l-17,6l-16,8l-17,5l-16,4l-16,7l-17,6l-16,8l-17,10l-16,7l-17,8l-16,10l-11,7l-6,9l-16,19l-17,20l-16,16l-17,17l-12,15l-4,12l-17,48l-14,36l-2,6l-17,35l-16,24l-11,31l-6,21l-16,70l-2,5l2,96l16,80l4,15l13,27l16,25l17,26l9,18l7,9l17,24l16,24l17,20l16,16l3,3l14,11l16,14l17,13l16,14l17,11l16,13l17,14l7,6l9,6l17,11l16,8l16,6l17,6l16,8l17,6l16,6l17,6l16,8l17,6l16,9l17,4l14,6l2,0l17,6l16,2l17,3l16,3l17,4l16,4l17,1l16,-1l17,0l16,0l16,0l17,1l16,-1l17,0l16,1l17,1l16,-2l17,-2l16,-3l17,-3l16,0l17,-1l16,-2l17,0l16,-3l17,-3l16,-4l8,-1l9,-2l16,-3l17,-3l16,-3l16,-4l17,-4l16,-3l17,-2l16,-4l17,-3l16,-3l17,-1l16,-2l17,-2l16,-2l17,-2l16,-3l17,-4l16,-5l17,-3l16,-3l17,-2l16,-4l16,-6l17,-7l16,-4l17,-6l12,-6l4,-3l17,-6l16,-9l17,-8l16,-10l17,-9l16,-7l17,-8l16,-8l17,-9l16,-14l7,-5l10,-10l16,-17l17,-17l16,-13l17,-12l16,-13l15,-14l1,-2l17,-30l16,-28l17,-18l12,-18l4,-11l17,-41l16,-43l2,-96l-2,-9l-16,-73l-4,-14l-13,-20l-16,-22l-17,-18l-16,-25l-7,-11l-10,-9l-16,-12l-16,-11l-17,-11l-16,-9l-17,-13l-16,-15l-17,-14l-2,-2l-14,-9l-17,-9l-16,-7l-17,-7l-16,-7l-17,-7l-16,-9l-17,-10l-16,-10l-17,-8l-16,-8l-8,-5l-9,-4l-16,-7l-17,-8l-16,-7l-16,-5l-17,-3l-16,-1l-17,-2l-16,-5l-17,-3l-16,-5l-17,-3l-16,-2l-17,-3l-16,-3l-17,-1l-16,-2l-17,-2l-16,-4l-17,-5l-16,-4l-17,-2l-16,-5l-16,-5l-17,-4l-4,0l-12,-4l-17,-3l-16,-4l-17,-3l-16,-4l-17,-1l-16,-2l-17,-3l-16,1l-17,-4l-16,-4l-17,-4l-16,-3l-17,-1l-16,-3l-17,-2l-16,-2l-17,-1l-16,-2l-16,-1l-17,1l-16,-2l-17,-5l-16,0l-17,3l-16,6l-17,2l-16,2l-17,5l-16,5l-17,7l-16,5l-17,9l-16,10ZM3872,723l17,-2l16,0l17,-3l16,-2l16,2l17,2l16,1l6,2l11,6l16,3l17,5l16,8l17,12l16,12l17,6l16,-6l17,3l16,3l17,0l16,14l17,11l16,11l17,8l16,32l17,34l13,30l-13,24l-17,24l-16,23l-17,13l-7,11l-9,6l-17,8l-16,10l-17,-2l-16,4l-17,3l-16,-2l-17,4l-16,9l-17,7l-16,5l-17,2l-16,-2l-17,2l-16,2l-17,2l-16,-1l-16,-2l-17,-2l-16,3l-17,-4l-16,-6l-17,-11l-16,-11l-17,-10l-16,-7l-6,-7l-11,-28l-16,-62l-2,-5l2,-24l5,-72l11,-21l17,-20l16,-6l17,-11l16,-23l17,-12l16,-3Z"
              fill="#c77560" stroke-opacity="1.0"></path>
        <path fill-opacity="1.000" stroke-width="10" stroke="#b05b5a"
              d="M3856,723l-17,12l-16,23l-17,11l-16,6l-17,20l-13,24l-3,48l-4,48l4,11l16,62l8,22l9,9l16,7l17,11l16,10l17,11l16,6l17,4l16,-3l17,2l16,2l16,1l17,-2l16,-2l17,-2l16,2l17,-2l16,-5l17,-7l16,-9l17,-4l16,2l17,-3l16,-4l17,2l16,-10l17,-8l13,-8l3,-5l17,-13l16,-24l17,-23l16,-30l-16,-37l-17,-35l-12,-24l-4,-3l-17,-8l-16,-11l-17,-11l-16,-14l-17,0l-16,-3l-17,-2l-16,5l-17,-5l-16,-13l-17,-11l-16,-9l-17,-5l-16,-3l-6,-3l-11,-3l-16,-2l-17,-2l-16,-1l-16,1l-17,3l-16,0l-17,2Z"
              fill="#b05b5a" stroke-opacity="1.0"></path>
        <path fill-opacity="1.000" stroke-width="10" stroke="#984b44" d="" fill="#984b44" stroke-opacity="1.0"></path>
        <path fill-opacity="0.125" stroke="none" d="" fill="#000"></path>
        <path fill-opacity="0.251" stroke="none"
              d="M6772,2400l0,-656l-17,0l-16,1l-17,0l-16,1l-17,0l-16,1l-17,0l-16,1l-17,1l-16,0l-16,1l-17,1l-16,1l-17,1l-16,1l-17,1l-16,1l-17,1l-16,1l-17,2l-16,1l-17,1l-16,1l-17,2l-16,1l-17,1l-16,2l-17,1l-16,2l-16,1l-17,2l-16,1l-17,2l-16,1l-17,2l-16,1l-17,2l-16,2l-17,1l-16,2l-17,2l-16,1l-17,2l-16,2l-17,1l-16,2l-17,2l-16,1l-17,2l-16,2l-16,2l-17,1l-16,2l-17,2l-16,2l-17,1l-16,2l-17,2l-16,1l-17,2l-16,-94l-17,2l-16,1l-17,2l-16,2l-17,1l-16,2l-17,2l-16,1l-17,2l-16,2l-16,1l-17,2l-16,2l-17,1l-16,2l-17,1l-16,2l-17,2l-16,1l-17,2l-16,1l-17,2l-16,2l-17,1l-16,2l-17,1l-16,2l-17,1l-16,2l-16,1l-17,2l-16,1l-17,2l-16,2l-17,1l-16,2l-17,1l-16,2l-17,1l-16,2l-17,1l-16,2l-17,1l-16,2l-17,1l-16,2l-17,1l-16,2l-17,2l-16,1l-16,2l-17,1l-16,2l-17,1l-16,2l-17,1l-16,2l-17,1l-16,2l-17,2l-16,1l-17,2l-16,1l-17,2l-16,2l-17,1l-16,2l-17,1l-16,2l-17,2l-16,1l-16,2l-17,1l-16,2l-17,2l-16,1l-17,2l-16,2l-17,1l-16,2l-17,2l-16,1l-17,2l-16,1l-17,2l-16,2l-17,1l-16,2l-17,2l-16,1l-16,2l-17,1l-16,2l-17,2l-16,1l-17,2l-16,1l-17,2l-16,1l-17,2l-16,2l-17,1l-16,1l-17,2l-16,1l-17,2l-16,1l-17,2l-16,1l-17,1l-16,1l-16,2l-17,1l-16,1l-17,1l-16,1l-17,1l-16,1l-17,1l-16,1l-17,1l-16,1l-17,1l-16,1l-17,1l-16,0l-17,1l-16,1l-17,0l-16,1l-17,0l-16,1l-16,0l-17,0l-16,0l-17,1l-16,0l-17,0l-16,0l-17,0l-16,0l-17,0l-16,-1l-17,0l-16,0l-17,-1l-16,0l-17,0l-16,-1l-17,-1l-16,0l-16,-1l-17,-1l-16,-1l-17,0l-16,-1l-17,-1l-16,-1l-17,-1l-16,-2l-17,-1l-16,-1l-17,-1l-16,-2l-17,-1l-16,-1l-17,-2l-16,-1l-17,-2l-16,-2l-17,-1l-16,-2l-16,-2l-17,-1l-16,-2l-17,-2l-16,-2l-17,-2l-16,-2l-17,-2l-16,-2l-17,-2l-16,-2l-17,-2l-16,-2l-17,-2l-16,-3l-17,-2l-16,-2l-17,-2l-16,-3l-17,-2l-16,-2l-16,-3l-17,-2l-16,-2l-17,-3l-16,-2l-17,-3l-16,-2l-17,-3l-16,-2l-17,-3l-16,-2l-17,-3l-16,-2l-17,-3l-16,-3l-17,-2l-16,-3l-17,-2l-16,-3l-16,-2l-17,-3l-16,-3l-17,-2l-16,-3l-17,-2l-16,-3l-17,-3l-16,-2l-17,-3l-16,-3l-17,-2l-16,-3l-17,-2l-16,-3l-17,-2l-16,-3l-17,-3l-16,-2l-17,-3l-16,-2l-16,-3l-17,-2l-16,-3l-17,-2l-16,93l-17,-2l-16,-3l-17,-2l-16,-2l-17,-3l-16,-2l-17,-2l-16,-3l-17,-2l-16,-2l-17,-3l-16,-2l-17,-2l-16,-2l-17,-2l-16,-2l-16,-2l-17,-2l-16,-2l-17,-2l-16,-2l-17,-2l-16,-2l-17,-2l-16,-2l-17,-1l-16,-2l-17,-2l-16,-1l-17,-2l-16,-2l-17,-1l-16,-2l-17,-1l-16,-1l-16,-2l-17,-1l-16,-1l-17,-1l-16,-2l-17,-1l-16,-1l-17,-1l-16,-1l-17,-1l-16,0l-17,-1l-16,-1l-17,-1l-16,0l-17,-1l-16,0l-17,-1l-16,0l-17,-1l-16,0l-16,0l-17,0l-16,-1l-17,0l-16,0l-17,0l-16,0l-17,1l-16,0l-17,0l0,656Z"
              fill="#000"></path>
        <path fill-opacity="0.125" stroke="none"
              d="M758,1744l17,0l16,0l17,-1l16,0l17,0l16,0l17,0l16,1l17,0l16,0l16,0l17,1l16,0l17,1l16,0l17,1l16,0l17,1l16,1l17,1l16,0l17,1l16,1l17,1l16,1l17,1l16,2l17,1l16,1l17,1l16,2l16,1l17,1l16,2l17,1l16,2l17,2l16,1l17,2l16,2l17,1l16,2l17,2l16,2l17,2l16,2l17,2l16,2l17,2l16,2l16,2l17,2l16,2l17,2l16,2l17,3l16,2l17,2l16,3l17,2l16,2l17,3l16,2l17,2l16,3l17,2l16,-93l17,2l16,3l17,2l16,3l16,2l17,3l16,2l17,3l16,3l17,2l16,3l17,2l16,3l17,2l16,3l17,3l16,2l17,3l16,3l17,2l16,3l17,2l16,3l17,3l16,2l16,3l17,2l16,3l17,2l16,3l17,3l16,2l17,3l16,2l17,3l16,2l17,3l16,2l17,3l16,2l17,3l16,2l17,2l16,3l16,2l17,2l16,3l17,2l16,2l17,2l16,3l17,2l16,2l17,2l16,2l17,2l16,2l17,2l16,2l17,2l16,2l17,2l16,2l17,1l16,2l16,2l17,1l16,2l17,2l16,1l17,2l16,1l17,1l16,2l17,1l16,1l17,1l16,2l17,1l16,1l17,1l16,1l17,0l16,1l17,1l16,1l16,0l17,1l16,1l17,0l16,0l17,1l16,0l17,0l16,1l17,0l16,0l17,0l16,0l17,0l16,0l17,-1l16,0l17,0l16,0l16,-1l17,0l16,-1l17,0l16,-1l17,-1l16,0l17,-1l16,-1l17,-1l16,-1l17,-1l16,-1l17,-1l16,-1l17,-1l16,-1l17,-1l16,-1l17,-1l16,-2l16,-1l17,-1l16,-1l17,-2l16,-1l17,-2l16,-1l17,-2l16,-1l17,-1l16,-2l17,-2l16,-1l17,-2l16,-1l17,-2l16,-1l17,-2l16,-2l17,-1l16,-2l16,-1l17,-2l16,-2l17,-1l16,-2l17,-2l16,-1l17,-2l16,-1l17,-2l16,-2l17,-1l16,-2l17,-2l16,-1l17,-2l16,-2l17,-1l16,-2l16,-1l17,-2l16,-2l17,-1l16,-2l17,-1l16,-2l17,-2l16,-1l17,-2l16,-1l17,-2l16,-2l17,-1l16,-2l17,-1l16,-2l17,-1l16,-2l17,-1l16,-2l16,-1l17,-2l16,-2l17,-1l16,-2l17,-1l16,-2l17,-1l16,-2l17,-1l16,-2l17,-1l16,-2l17,-1l16,-2l17,-1l16,-2l17,-2l16,-1l17,-2l16,-1l16,-2l17,-1l16,-2l17,-1l16,-2l17,-1l16,-2l17,-2l16,-1l17,-2l16,-1l17,-2l16,-2l17,-1l16,-2l17,-1l16,-2l17,-2l16,-1l16,-2l17,-2l16,-1l17,-2l16,-2l17,-1l16,-2l17,-2l16,-1l17,-2l16,94l17,-2l16,-1l17,-2l16,-2l17,-1l16,-2l17,-2l16,-2l17,-1l16,-2l16,-2l17,-2l16,-1l17,-2l16,-2l17,-1l16,-2l17,-2l16,-1l17,-2l16,-2l17,-1l16,-2l17,-2l16,-1l17,-2l16,-1l17,-2l16,-1l17,-2l16,-1l16,-2l17,-1l16,-2l17,-1l16,-1l17,-2l16,-1l17,-1l16,-1l17,-2l16,-1l17,-1l16,-1l17,-1l16,-1l17,-1l16,-1l17,-1l16,-1l16,0l17,-1l16,-1l17,0l16,-1l17,0l16,-1l17,0l16,-1l17,0l0,-48l-17,0l-16,0l-17,1l-16,0l-17,1l-16,0l-17,1l-16,0l-17,1l-16,1l-16,1l-17,1l-16,0l-17,1l-16,1l-17,1l-16,2l-17,1l-16,1l-17,1l-16,1l-17,2l-16,1l-17,1l-16,2l-17,1l-16,2l-17,1l-16,2l-16,1l-17,2l-16,2l-17,1l-16,2l-17,1l-16,2l-17,2l-16,2l-17,1l-16,2l-17,2l-16,2l-17,1l-16,2l-17,2l-16,2l-17,2l-16,1l-17,2l-16,2l-16,2l-17,2l-16,2l-17,1l-16,2l-17,2l-16,2l-17,2l-16,1l-17,2l-16,-94l-17,2l-16,2l-17,2l-16,1l-17,2l-16,2l-17,2l-16,1l-17,2l-16,2l-16,2l-17,1l-16,2l-17,2l-16,1l-17,2l-16,2l-17,1l-16,2l-17,2l-16,1l-17,2l-16,1l-17,2l-16,2l-17,1l-16,2l-17,1l-16,2l-16,1l-17,2l-16,2l-17,1l-16,2l-17,1l-16,2l-17,1l-16,2l-17,1l-16,2l-17,1l-16,2l-17,1l-16,2l-17,1l-16,2l-17,1l-16,2l-17,1l-16,2l-16,1l-17,2l-16,1l-17,2l-16,1l-17,2l-16,1l-17,1l-16,2l-17,1l-16,2l-17,1l-16,2l-17,1l-16,2l-17,1l-16,2l-17,1l-16,2l-17,1l-16,2l-16,1l-17,2l-16,1l-17,2l-16,1l-17,2l-16,1l-17,2l-16,1l-17,2l-16,1l-17,2l-16,1l-17,2l-16,1l-17,2l-16,1l-17,2l-16,1l-16,2l-17,1l-16,2l-17,1l-16,2l-17,1l-16,1l-17,2l-16,1l-17,2l-16,1l-17,1l-16,2l-17,1l-16,1l-17,2l-16,1l-17,1l-16,1l-17,1l-16,2l-16,1l-17,1l-16,1l-17,1l-16,1l-17,1l-16,1l-17,1l-16,1l-17,1l-16,0l-17,1l-16,1l-17,1l-16,0l-17,1l-16,0l-17,1l-16,0l-17,1l-16,0l-16,1l-17,0l-16,0l-17,0l-16,1l-17,0l-16,0l-17,0l-16,0l-17,0l-16,0l-17,-1l-16,0l-17,0l-16,-1l-17,0l-16,0l-17,-1l-16,0l-16,-1l-17,-1l-16,0l-17,-1l-16,-1l-17,-1l-16,-1l-17,-1l-16,-1l-17,-1l-16,-1l-17,-1l-16,-1l-17,-1l-16,-2l-17,-1l-16,-1l-17,-2l-16,-1l-17,-2l-16,-1l-16,-2l-17,-1l-16,-2l-17,-2l-16,-1l-17,-2l-16,-2l-17,-2l-16,-2l-17,-2l-16,-2l-17,-2l-16,-2l-17,-2l-16,-2l-17,-2l-16,-2l-17,-2l-16,-2l-17,-2l-16,-3l-16,-2l-17,-2l-16,-2l-17,-3l-16,-2l-17,-2l-16,-3l-17,-2l-16,-3l-17,-2l-16,-2l-17,-3l-16,-2l-17,-3l-16,-2l-17,-3l-16,-2l-17,-3l-16,-2l-16,-3l-17,-2l-16,-3l-17,-3l-16,-2l-17,-3l-16,-2l-17,-3l-16,-2l-17,-3l-16,-3l-17,-2l-16,-3l-17,-2l-16,-3l-17,-2l-16,-3l-17,-2l-16,-3l-17,-3l-16,-2l-16,-3l-17,-2l-16,-3l-17,-2l-16,93l-17,-2l-16,-3l-17,-2l-16,-3l-17,-2l-16,-2l-17,-3l-16,-2l-17,-2l-16,-3l-17,-2l-16,-2l-17,-2l-16,-3l-17,-2l-16,-2l-16,-2l-17,-2l-16,-2l-17,-2l-16,-2l-17,-2l-16,-2l-17,-2l-16,-2l-17,-2l-16,-2l-17,-2l-16,-1l-17,-2l-16,-2l-17,-1l-16,-2l-17,-1l-16,-2l-16,-1l-17,-2l-16,-1l-17,-1l-16,-2l-17,-1l-16,-1l-17,-1l-16,-1l-17,-1l-16,-1l-17,-1l-16,-1l-17,-1l-16,0l-17,-1l-16,-1l-17,0l-16,-1l-17,0l-16,-1l-16,0l-17,0l-16,0l-17,-1l-16,0l-17,0l-16,0l-17,0l-16,0l-17,1Z"
              fill="#000"></path>
        <path fill-opacity="0.125" stroke="none"
              d="M758,793l17,-1l16,-1l17,-2l16,-1l17,-2l16,-1l17,-2l16,-1l17,-2l16,-2l16,-1l17,-2l16,-2l17,-1l16,-2l17,-2l16,-2l17,-1l16,-2l17,-2l16,-2l17,-2l16,-2l17,-2l16,-1l17,-2l16,-2l17,-2l16,-2l17,-2l16,-2l16,-2l17,-2l16,-2l17,-1l16,-2l17,-2l16,-2l17,-2l16,-2l17,-2l16,-2l17,-2l16,-1l17,-2l16,-2l17,-2l16,-2l17,-2l16,-1l16,-2l17,-2l16,-2l17,-2l16,-1l17,-2l16,-2l17,-2l16,-2l17,-1l16,-2l17,-2l16,-1l17,-2l16,-2l17,-2l16,-97l17,-2l16,-1l17,-2l16,-2l16,-1l17,-2l16,-2l17,-1l16,-2l17,-2l16,-1l17,-2l16,-2l17,-1l16,-2l17,-1l16,-2l17,-2l16,-1l17,-2l16,-1l17,-2l16,-2l17,-1l16,-2l16,-1l17,-2l16,-2l17,-1l16,-2l17,-1l16,-2l17,-2l16,-1l17,-2l16,-1l17,-2l16,-2l17,-1l16,-2l17,-1l16,-2l17,-2l16,-1l16,-2l17,-2l16,-1l17,-2l16,-1l17,-2l16,-2l17,-1l16,-2l17,-1l16,-2l17,-1l16,-2l17,-2l16,-1l17,-2l16,-1l17,-2l16,-1l17,-2l16,-1l16,-2l17,-1l16,-2l17,-1l16,-2l17,-1l16,-2l17,-1l16,-2l17,-1l16,-1l17,-2l16,-1l17,-1l16,-2l17,-1l16,-1l17,-1l16,-1l17,-1l16,-2l16,-1l17,-1l16,-1l17,-1l16,-1l17,0l16,-1l17,-1l16,-1l17,-1l16,0l17,-1l16,0l17,-1l16,0l17,-1l16,0l17,-1l16,0l16,0l17,-1l16,0l17,0l16,0l17,0l16,0l17,0l16,0l17,1l16,0l17,0l16,1l17,0l16,0l17,1l16,0l17,1l16,1l17,0l16,1l16,1l17,1l16,1l17,1l16,1l17,1l16,1l17,1l16,1l17,2l16,1l17,1l16,2l17,1l16,2l17,1l16,2l17,1l16,2l17,2l16,1l16,2l17,2l16,2l17,2l16,1l17,2l16,2l17,2l16,2l17,2l16,3l17,2l16,2l17,2l16,2l17,2l16,3l17,2l16,2l16,3l17,2l16,2l17,3l16,2l17,3l16,2l17,3l16,2l17,2l16,3l17,3l16,2l17,3l16,2l17,3l16,2l17,3l16,2l17,3l16,3l16,2l17,3l16,3l17,2l16,3l17,2l16,3l17,3l16,2l17,3l16,3l17,2l16,3l17,2l16,3l17,3l16,2l17,3l16,2l17,3l16,3l16,2l17,3l16,2l17,3l16,2l17,3l16,2l17,3l16,2l17,2l16,3l17,2l16,2l17,3l16,2l17,2l16,3l17,2l16,2l16,2l17,2l16,3l17,2l16,2l17,2l16,2l17,2l16,2l17,2l16,97l17,2l16,2l17,2l16,1l17,2l16,2l17,1l16,2l17,1l16,2l16,1l17,1l16,2l17,1l16,1l17,1l16,1l17,1l16,1l17,1l16,1l17,1l16,1l17,0l16,1l17,1l16,0l17,1l16,0l17,0l16,1l16,0l17,0l16,0l17,0l16,0l17,0l16,0l17,0l16,0l17,0l16,-1l17,0l16,-1l17,0l16,-1l17,0l16,-1l17,-1l16,-1l16,0l17,-1l16,-1l17,-1l16,-1l17,-2l16,-1l17,-1l16,-1l17,-1l0,-49l-17,1l-16,2l-17,1l-16,1l-17,1l-16,1l-17,1l-16,1l-17,1l-16,1l-16,1l-17,0l-16,1l-17,1l-16,0l-17,1l-16,0l-17,1l-16,0l-17,0l-16,1l-17,0l-16,0l-17,0l-16,0l-17,0l-16,0l-17,0l-16,0l-16,0l-17,-1l-16,0l-17,0l-16,-1l-17,0l-16,-1l-17,0l-16,-1l-17,-1l-16,-1l-17,0l-16,-1l-17,-1l-16,-1l-17,-1l-16,-1l-17,-2l-16,-1l-17,-1l-16,-1l-16,-2l-17,-1l-16,-1l-17,-2l-16,-1l-17,-2l-16,-1l-17,-2l-16,-2l-17,-2l-16,-97l-17,-2l-16,-2l-17,-2l-16,-2l-17,-1l-16,-2l-17,-2l-16,-3l-17,-2l-16,-2l-16,-2l-17,-2l-16,-2l-17,-2l-16,-3l-17,-2l-16,-2l-17,-3l-16,-2l-17,-2l-16,-3l-17,-2l-16,-2l-17,-3l-16,-2l-17,-3l-16,-2l-17,-3l-16,-2l-16,-3l-17,-3l-16,-2l-17,-3l-16,-2l-17,-3l-16,-3l-17,-2l-16,-3l-17,-2l-16,-3l-17,-3l-16,-2l-17,-3l-16,-3l-17,-2l-16,-3l-17,-3l-16,-2l-17,-3l-16,-3l-16,-2l-17,-3l-16,-3l-17,-2l-16,-3l-17,-3l-16,-2l-17,-3l-16,-2l-17,-3l-16,-3l-17,-2l-16,-3l-17,-2l-16,-3l-17,-2l-16,-3l-17,-2l-16,-3l-17,-2l-16,-3l-16,-2l-17,-3l-16,-2l-17,-2l-16,-3l-17,-2l-16,-2l-17,-3l-16,-2l-17,-2l-16,-2l-17,-2l-16,-3l-17,-2l-16,-2l-17,-2l-16,-2l-17,-2l-16,-1l-16,-2l-17,-2l-16,-2l-17,-2l-16,-1l-17,-2l-16,-2l-17,-1l-16,-2l-17,-1l-16,-2l-17,-1l-16,-2l-17,-1l-16,-1l-17,-1l-16,-1l-17,-2l-16,-1l-17,-1l-16,-1l-16,0l-17,-1l-16,-1l-17,-1l-16,0l-17,-1l-16,-1l-17,0l-16,-1l-17,0l-16,0l-17,0l-16,-1l-17,0l-16,0l-17,0l-16,0l-17,0l-16,0l-17,0l-16,1l-16,0l-17,0l-16,1l-17,0l-16,1l-17,0l-16,1l-17,1l-16,0l-17,1l-16,1l-17,1l-16,1l-17,1l-16,1l-17,1l-16,1l-17,1l-16,1l-16,1l-17,2l-16,1l-17,1l-16,1l-17,2l-16,1l-17,2l-16,1l-17,2l-16,1l-17,2l-16,1l-17,2l-16,1l-17,2l-16,1l-17,2l-16,2l-17,1l-16,2l-16,2l-17,1l-16,2l-17,2l-16,1l-17,2l-16,2l-17,2l-16,1l-17,2l-16,2l-17,2l-16,1l-17,2l-16,2l-17,2l-16,1l-17,2l-16,2l-17,1l-16,2l-16,2l-17,2l-16,1l-17,2l-16,2l-17,2l-16,1l-17,2l-16,2l-17,1l-16,2l-17,2l-16,1l-17,2l-16,2l-17,2l-16,1l-17,2l-16,2l-16,1l-17,2l-16,1l-17,2l-16,2l-17,1l-16,2l-17,2l-16,1l-17,2l-16,2l-17,1l-16,2l-17,2l-16,1l-17,2l-16,2l-17,1l-16,2l-17,2l-16,1l-16,2l-17,2l-16,1l-17,2l-16,97l-17,2l-16,2l-17,1l-16,2l-17,2l-16,1l-17,2l-16,2l-17,2l-16,1l-17,2l-16,2l-17,1l-16,2l-17,2l-16,2l-16,1l-17,2l-16,2l-17,2l-16,2l-17,1l-16,2l-17,2l-16,2l-17,1l-16,2l-17,2l-16,2l-17,2l-16,1l-17,2l-16,2l-17,2l-16,2l-16,1l-17,2l-16,2l-17,2l-16,2l-17,1l-16,2l-17,2l-16,2l-17,1l-16,2l-17,2l-16,2l-17,1l-16,2l-17,2l-16,1l-17,2l-16,2l-17,1l-16,2l-16,1l-17,2l-16,1l-17,2l-16,1l-17,2l-16,1l-17,1l-16,2l-17,1Z"
              fill="#000"></path>
        <path fill-opacity="0.251" stroke="none"
              d="M758,745l17,-1l16,-2l17,-1l16,-1l17,-2l16,-1l17,-2l16,-1l17,-2l16,-1l16,-2l17,-1l16,-2l17,-2l16,-1l17,-2l16,-2l17,-1l16,-2l17,-2l16,-2l17,-1l16,-2l17,-2l16,-2l17,-1l16,-2l17,-2l16,-2l17,-2l16,-1l16,-2l17,-2l16,-2l17,-2l16,-1l17,-2l16,-2l17,-2l16,-2l17,-1l16,-2l17,-2l16,-2l17,-1l16,-2l17,-2l16,-2l17,-2l16,-1l16,-2l17,-2l16,-2l17,-1l16,-2l17,-2l16,-1l17,-2l16,-2l17,-2l16,-1l17,-2l16,-2l17,-1l16,-2l17,-2l16,-97l17,-2l16,-1l17,-2l16,-2l16,-1l17,-2l16,-2l17,-1l16,-2l17,-2l16,-1l17,-2l16,-2l17,-1l16,-2l17,-2l16,-1l17,-2l16,-2l17,-1l16,-2l17,-2l16,-1l17,-2l16,-1l16,-2l17,-2l16,-1l17,-2l16,-2l17,-2l16,-1l17,-2l16,-2l17,-1l16,-2l17,-2l16,-1l17,-2l16,-2l17,-2l16,-1l17,-2l16,-2l16,-2l17,-1l16,-2l17,-2l16,-1l17,-2l16,-2l17,-2l16,-1l17,-2l16,-2l17,-2l16,-1l17,-2l16,-2l17,-2l16,-1l17,-2l16,-2l17,-1l16,-2l16,-2l17,-1l16,-2l17,-2l16,-1l17,-2l16,-1l17,-2l16,-1l17,-2l16,-1l17,-2l16,-1l17,-2l16,-1l17,-2l16,-1l17,-1l16,-1l17,-2l16,-1l16,-1l17,-1l16,-1l17,-1l16,-1l17,-1l16,-1l17,-1l16,-1l17,-1l16,0l17,-1l16,-1l17,0l16,-1l17,0l16,-1l17,0l16,0l16,-1l17,0l16,0l17,0l16,0l17,0l16,0l17,0l16,1l17,0l16,0l17,0l16,1l17,0l16,1l17,1l16,0l17,1l16,1l17,1l16,0l16,1l17,1l16,1l17,2l16,1l17,1l16,1l17,1l16,2l17,1l16,2l17,1l16,2l17,1l16,2l17,2l16,1l17,2l16,2l17,2l16,2l16,1l17,2l16,2l17,2l16,2l17,2l16,3l17,2l16,2l17,2l16,2l17,3l16,2l17,2l16,3l17,2l16,2l17,3l16,2l16,3l17,2l16,3l17,2l16,3l17,2l16,3l17,2l16,3l17,2l16,3l17,3l16,2l17,3l16,2l17,3l16,3l17,2l16,3l17,3l16,2l16,3l17,3l16,2l17,3l16,3l17,2l16,3l17,3l16,2l17,3l16,3l17,2l16,3l17,2l16,3l17,3l16,2l17,3l16,2l17,3l16,3l16,2l17,3l16,2l17,3l16,2l17,3l16,2l17,2l16,3l17,2l16,2l17,3l16,2l17,2l16,3l17,2l16,2l17,2l16,2l16,2l17,2l16,3l17,2l16,2l17,1l16,2l17,2l16,2l17,2l16,97l17,2l16,2l17,2l16,1l17,2l16,1l17,2l16,1l17,1l16,2l16,1l17,1l16,1l17,2l16,1l17,1l16,1l17,1l16,1l17,0l16,1l17,1l16,1l17,0l16,1l17,0l16,1l17,0l16,0l17,1l16,0l16,0l17,0l16,0l17,0l16,0l17,0l16,0l17,0l16,-1l17,0l16,0l17,-1l16,0l17,-1l16,0l17,-1l16,-1l17,0l16,-1l16,-1l17,-1l16,-1l17,-1l16,-1l17,-1l16,-1l17,-1l16,-2l17,-1l0,-645l-6014,0Z"
              fill="#000"></path>
        <path fill-opacity="0.125" stroke="none" d="" fill="#000"></path>
    </g>
    <g stroke-width="1" stroke="#000" pointer-events="none" class="pointer_events_none" fill="none"
       stroke-opacity="0.072">
        <line x2="126.1" pointer-events="none" y1="10" x1="126.1" class="pointer_events_none" y2="245"
              stroke-opacity="0.12"></line>
        <line x2="173.9" pointer-events="none" y1="10" x1="173.9" class="pointer_events_none" y2="245"
              stroke-opacity="0.12"></line>
        <line x2="224.9" pointer-events="none" y1="10" x1="224.9" class="pointer_events_none" y2="245"
              stroke-opacity="0.12"></line>
        <line x2="274.4" pointer-events="none" y1="10" x1="274.4" class="pointer_events_none" y2="245"
              stroke-opacity="0.12"></line>
        <line x2="325.4" pointer-events="none" y1="10" x1="325.4" class="pointer_events_none" y2="245"
              stroke-opacity="0.12"></line>
        <line x2="374.9" pointer-events="none" y1="10" x1="374.9" class="pointer_events_none" y2="245"
              stroke-opacity="0.12"></line>
        <line x2="425.9" pointer-events="none" y1="10" x1="425.9" class="pointer_events_none" y2="245"
              stroke-opacity="0.12"></line>
        <line x2="477" pointer-events="none" y1="10" x1="477" class="pointer_events_none" y2="245"
              stroke-opacity="0.12"></line>
        <line x2="526.4" pointer-events="none" y1="10" x1="526.4" class="pointer_events_none" y2="245"
              stroke-opacity="0.12"></line>
        <line x2="577.5" pointer-events="none" y1="10" x1="577.5" class="pointer_events_none" y2="245"
              stroke-opacity="0.12"></line>
        <line x2="626.9" pointer-events="none" y1="10" x1="626.9" class="pointer_events_none" y2="245"
              stroke-opacity="0.12"></line>
        <line x2="678" pointer-events="none" y1="240" x1="72" y2="240"></line>
        <line x2="678" pointer-events="none" y1="201.7" x1="72" y2="201.7"></line>
        <line x2="678" pointer-events="none" y1="163.3" x1="72" y2="163.3"></line>
        <line x2="678" pointer-events="none" y1="125" x1="72" y2="125"></line>
        <line x2="678" pointer-events="none" y1="86.7" x1="72" y2="86.7"></line>
        <line x2="678" pointer-events="none" y1="48.3" x1="72" y2="48.3"></line>
        <line x2="678" pointer-events="none" y1="10" x1="72" y2="10"></line>
    </g>
    <a xlink:href="/m/3709/1/Average-Weather-in-January-in-Denver-Colorado-United-States#Sections-ColorTemperature"
       class="Figure-HorizontalAxis-group">
        <rect fill-opacity="0.004" y="10" x="75" height="230" class="Figure-hoverRect" width="51.1" fill="#fff"></rect>
        <text stroke="none" y="256.5" text-anchor="middle" x="100.5" class="Figure-HorizontalAxis-label">Jan</text>
    </a>
    <a xlink:href="/m/3709/2/Average-Weather-in-February-in-Denver-Colorado-United-States#Sections-ColorTemperature"
       class="Figure-HorizontalAxis-group">
        <rect fill-opacity="0.004" y="10" x="126.1" height="230" class="Figure-hoverRect" width="47.8"
              fill="#fff"></rect>
        <text stroke="none" y="256.5" text-anchor="middle" x="150" class="Figure-HorizontalAxis-label">Feb</text>
    </a>
    <a xlink:href="/m/3709/3/Average-Weather-in-March-in-Denver-Colorado-United-States#Sections-ColorTemperature"
       class="Figure-HorizontalAxis-group">
        <rect fill-opacity="0.004" y="10" x="173.9" height="230" class="Figure-hoverRect" width="51.1"
              fill="#fff"></rect>
        <text stroke="none" y="256.5" text-anchor="middle" x="199.4" class="Figure-HorizontalAxis-label">Mar</text>
    </a>
    <a xlink:href="/m/3709/4/Average-Weather-in-April-in-Denver-Colorado-United-States#Sections-ColorTemperature"
       class="Figure-HorizontalAxis-group">
        <rect fill-opacity="0.004" y="10" x="224.9" height="230" class="Figure-hoverRect" width="49.4"
              fill="#fff"></rect>
        <text stroke="none" y="256.5" text-anchor="middle" x="249.6" class="Figure-HorizontalAxis-label">Apr</text>
    </a>
    <a xlink:href="/m/3709/5/Average-Weather-in-May-in-Denver-Colorado-United-States#Sections-ColorTemperature"
       class="Figure-HorizontalAxis-group">
        <rect fill-opacity="0.004" y="10" x="274.4" height="230" class="Figure-hoverRect" width="51.1"
              fill="#fff"></rect>
        <text stroke="none" y="256.5" text-anchor="middle" x="299.9" class="Figure-HorizontalAxis-label">May</text>
    </a>
    <a xlink:href="/m/3709/6/Average-Weather-in-June-in-Denver-Colorado-United-States#Sections-ColorTemperature"
       class="Figure-HorizontalAxis-group">
        <rect fill-opacity="0.004" y="10" x="325.4" height="230" class="Figure-hoverRect" width="49.4"
              fill="#fff"></rect>
        <text stroke="none" y="256.5" text-anchor="middle" x="350.1" class="Figure-HorizontalAxis-label">Jun</text>
    </a>
    <a xlink:href="/m/3709/7/Average-Weather-in-July-in-Denver-Colorado-United-States#Sections-ColorTemperature"
       class="Figure-HorizontalAxis-group">
        <rect fill-opacity="0.004" y="10" x="374.9" height="230" class="Figure-hoverRect" width="51.1"
              fill="#fff"></rect>
        <text stroke="none" y="256.5" text-anchor="middle" x="400.4" class="Figure-HorizontalAxis-label">Jul</text>
    </a>
    <a xlink:href="/m/3709/8/Average-Weather-in-August-in-Denver-Colorado-United-States#Sections-ColorTemperature"
       class="Figure-HorizontalAxis-group">
        <rect fill-opacity="0.004" y="10" x="425.9" height="230" class="Figure-hoverRect" width="51.1"
              fill="#fff"></rect>
        <text stroke="none" y="256.5" text-anchor="middle" x="451.5" class="Figure-HorizontalAxis-label">Aug</text>
    </a>
    <a xlink:href="/m/3709/9/Average-Weather-in-September-in-Denver-Colorado-United-States#Sections-ColorTemperature"
       class="Figure-HorizontalAxis-group">
        <rect fill-opacity="0.004" y="10" x="477" height="230" class="Figure-hoverRect" width="49.4" fill="#fff"></rect>
        <text stroke="none" y="256.5" text-anchor="middle" x="501.7" class="Figure-HorizontalAxis-label">Sep</text>
    </a>
    <a xlink:href="/m/3709/10/Average-Weather-in-October-in-Denver-Colorado-United-States#Sections-ColorTemperature"
       class="Figure-HorizontalAxis-group">
        <rect fill-opacity="0.004" y="10" x="526.4" height="230" class="Figure-hoverRect" width="51.1"
              fill="#fff"></rect>
        <text stroke="none" y="256.5" text-anchor="middle" x="552" class="Figure-HorizontalAxis-label">Oct</text>
    </a>
    <a xlink:href="/m/3709/11/Average-Weather-in-November-in-Denver-Colorado-United-States#Sections-ColorTemperature"
       class="Figure-HorizontalAxis-group">
        <rect fill-opacity="0.004" y="10" x="577.5" height="230" class="Figure-hoverRect" width="49.4"
              fill="#fff"></rect>
        <text stroke="none" y="256.5" text-anchor="middle" x="602.2" class="Figure-HorizontalAxis-label">Nov</text>
    </a>
    <a xlink:href="/m/3709/12/Average-Weather-in-December-in-Denver-Colorado-United-States#Sections-ColorTemperature"
       class="Figure-HorizontalAxis-group">
        <rect fill-opacity="0.004" y="10" x="626.9" height="230" class="Figure-hoverRect" width="51.1"
              fill="#fff"></rect>
        <text stroke="none" y="256.5" text-anchor="middle" x="652.5" class="Figure-HorizontalAxis-label">Dec</text>
    </a>
    <g stroke="none" fill="#000">
        <text y="245.2" text-anchor="end" x="71">12 AM</text>
        <text y="206.9" text-anchor="end" x="71">4 AM</text>
        <text y="168.5" text-anchor="end" x="71">8 AM</text>
        <text y="130.2" text-anchor="end" x="71">12 PM</text>
        <text y="91.9" text-anchor="end" x="71">4 PM</text>
        <text y="53.5" text-anchor="end" x="71">8 PM</text>
        <text y="15.2" text-anchor="end" x="71">12 AM</text>
    </g>
    <g pointer-events="none">
        <text stroke="none" opacity="0.8" y="26" text-anchor="middle" x="105.4" fill="#fff">freezing</text>
    </g>
    <g pointer-events="none">
        <text stroke="none" opacity="0.8" y="200.7" text-anchor="middle" x="123.4" fill="#fff">freezing</text>
    </g>
    <g pointer-events="none">
        <text stroke="none" opacity="0.8" y="186.7" text-anchor="middle" x="644.6" fill="#fff">freezing</text>
    </g>
    <g pointer-events="none">
        <text stroke="none" opacity="0.8" y="192.3" text-anchor="middle" x="225.3" fill="#fff">very cold</text>
    </g>
    <g pointer-events="none">
        <text stroke="none" opacity="0.8" y="100.3" text-anchor="middle" x="186.8" fill="#fff">cold</text>
    </g>
    <g pointer-events="none">
        <text stroke="none" opacity="0.8" y="187.7" text-anchor="middle" x="523.8" fill="#fff">cold</text>
    </g>
    <g pointer-events="none">
        <text stroke="none" opacity="0.8" y="187.7" text-anchor="middle" x="457.7" fill="#fff">cool</text>
    </g>
    <g pointer-events="none">
        <text stroke="none" opacity="0.8" y="233.3" text-anchor="middle" x="415.7" fill="#fff">comfortable</text>
    </g>
    <g pointer-events="none">
        <text stroke="none" opacity="0.8" y="93.7" text-anchor="middle" x="468.6" fill="#fff">warm</text>
    </g>
    <g pointer-events="none">
        <text stroke="none" opacity="0.8" y="96.2" text-anchor="middle" x="400.2" fill="#fff">hot</text>
    </g>
    <g pointer-events="none">
        <text stroke="none" opacity="0.8" y="183.1" text-anchor="middle" x="577.2" fill="#fff">very cold</text>
    </g>
    <g pointer-events="none">
        <text stroke="none" opacity="0.8" y="29.2" text-anchor="middle" x="443.7" fill="#fff">comfortable</text>
    </g>
    <g pointer-events="none">
        <text stroke="none" opacity="0.8" y="25.9" text-anchor="middle" x="646.2" fill="#fff">freezing</text>
    </g>
</svg>